<?xml version="1.0" encoding="utf-8"?>
<!-- Uploaded to: SVG Repo, www.svgrepo.com, Generator: SVG Repo Mixer Tools -->
<svg fill="white" width="800px" height="800px" viewBox="0 0 32 32" version="1.1" xmlns="http://www.w3.org/2000/svg">
<title>scissors</title>
<path d="M28.531 25.469l-10.045-10.043 10.011-8.864c0.153-0.138 0.248-0.337 0.248-0.558 0-0.415-0.336-0.751-0.751-0.751-0.189 0-0.363 0.070-0.495 0.186l0.001-0.001-10.078 8.925-5.127-5.126c0.33-0.717 0.523-1.556 0.523-2.439 0-3.288-2.666-5.954-5.954-5.954s-5.954 2.666-5.954 5.954c0 3.288 2.666 5.954 5.954 5.954 1.861 0 3.523-0.854 4.615-2.191l0.008-0.011 4.81 4.811-5.784 5.123c-0.956-0.763-2.18-1.227-3.513-1.233h-0.001c-3.176 0-5.75 2.574-5.75 5.75s2.574 5.75 5.75 5.75c3.176 0 5.75-2.574 5.75-5.75v0c-0.005-1.305-0.448-2.506-1.19-3.464l0.010 0.013 5.791-5.127 10.108 10.109c0.136 0.136 0.324 0.22 0.531 0.22 0.415 0 0.751-0.336 0.751-0.751 0-0.207-0.084-0.395-0.22-0.531v0zM7 11.25c-2.347 0-4.25-1.903-4.25-4.25s1.903-4.25 4.25-4.25c2.347 0 4.25 1.903 4.25 4.25v0c-0.003 2.346-1.904 4.247-4.25 4.25h-0zM7 29.25c-2.347 0-4.25-1.903-4.25-4.25s1.903-4.25 4.25-4.25c2.347 0 4.25 1.903 4.25 4.25v0c-0.003 2.346-1.904 4.247-4.25 4.25h-0z"></path>
</svg>